<svg width="50" height="50" viewBox="0 0 50 50" fill="none" xmlns="http://www.w3.org/2000/svg">
<path d="M40.1777 34.8834L40.25 34.8103V34.7075V10C40.25 8.60761 39.6969 7.27225 38.7123 6.28769C37.7277 5.30312 36.3924 4.75 35 4.75H15C13.6076 4.75 12.2723 5.30312 11.2877 6.28769C10.3031 7.27225 9.75 8.60761 9.75 10V40C9.75 41.3924 10.3031 42.7277 11.2877 43.7123C12.2723 44.6969 13.6076 45.25 15 45.25H27.175H27.77L27.3536 44.825L26.2511 43.7L26.2504 43.6993C25.8799 43.3242 25.6139 42.8836 25.4481 42.4164L25.389 42.25H25.2125H15C14.4033 42.25 13.831 42.0129 13.409 41.591C12.9871 41.169 12.75 40.5967 12.75 40V10C12.75 9.40326 12.9871 8.83097 13.409 8.40901C13.831 7.98705 14.4033 7.75 15 7.75H35C35.5967 7.75 36.169 7.98705 36.591 8.40901C37.0129 8.83097 37.25 9.40326 37.25 10V37.2325V37.8403L37.6777 37.4084L40.1777 34.8834ZM19.4445 15.6945C19.9603 15.1788 20.25 14.4793 20.25 13.75C20.25 13.0207 19.9603 12.3212 19.4445 11.8055C18.9288 11.2897 18.2293 11 17.5 11C16.7707 11 16.0712 11.2897 15.5555 11.8055C15.0397 12.3212 14.75 13.0207 14.75 13.75C14.75 14.4793 15.0397 15.1788 15.5555 15.6945C16.0712 16.2103 16.7707 16.5 17.5 16.5C18.2293 16.5 18.9288 16.2103 19.4445 15.6945ZM23.75 12.25C23.3522 12.25 22.9706 12.408 22.6893 12.6893C22.408 12.9706 22.25 13.3522 22.25 13.75C22.25 14.1478 22.408 14.5294 22.6893 14.8107C22.9706 15.092 23.3522 15.25 23.75 15.25H33.75C34.1478 15.25 34.5294 15.092 34.8107 14.8107C35.092 14.5294 35.25 14.1478 35.25 13.75C35.25 13.3522 35.092 12.9706 34.8107 12.6893C34.5294 12.408 34.1478 12.25 33.75 12.25H23.75ZM23.75 22.25C23.3522 22.25 22.9706 22.408 22.6893 22.6893C22.408 22.9706 22.25 23.3522 22.25 23.75C22.25 24.1478 22.408 24.5294 22.6893 24.8107C22.9706 25.092 23.3522 25.25 23.75 25.25H33.75C34.1478 25.25 34.5294 25.092 34.8107 24.8107C35.092 24.5294 35.25 24.1478 35.25 23.75C35.25 23.3522 35.092 22.9706 34.8107 22.6893C34.5294 22.408 34.1478 22.25 33.75 22.25H23.75ZM22.6893 32.6893C22.408 32.9706 22.25 33.3522 22.25 33.75C22.25 34.1478 22.408 34.5294 22.6893 34.8107C22.9706 35.092 23.3522 35.25 23.75 35.25H33.75C34.1478 35.25 34.5294 35.092 34.8107 34.8107C35.092 34.5294 35.25 34.1478 35.25 33.75C35.25 33.3522 35.092 32.9706 34.8107 32.6893C34.5294 32.408 34.1478 32.25 33.75 32.25H23.75C23.3522 32.25 22.9706 32.408 22.6893 32.6893ZM17.5 26.5C18.2293 26.5 18.9288 26.2103 19.4445 25.6945C19.9603 25.1788 20.25 24.4793 20.25 23.75C20.25 23.0207 19.9603 22.3212 19.4445 21.8055C18.9288 21.2897 18.2293 21 17.5 21C16.7707 21 16.0712 21.2897 15.5555 21.8055C15.0397 22.3212 14.75 23.0207 14.75 23.75C14.75 24.4793 15.0397 25.1788 15.5555 25.6945C16.0712 26.2103 16.7707 26.5 17.5 26.5ZM17.5 36.5C18.2293 36.5 18.9288 36.2103 19.4445 35.6945C19.9603 35.1788 20.25 34.4793 20.25 33.75C20.25 33.0207 19.9603 32.3212 19.4445 31.8055C18.9288 31.2897 18.2293 31 17.5 31C16.7707 31 16.0712 31.2897 15.5555 31.8055C15.0397 32.3212 14.75 33.0207 14.75 33.75C14.75 34.4793 15.0397 35.1788 15.5555 35.6945C16.0712 36.2103 16.7707 36.5 17.5 36.5Z" fill="#5C27C0" stroke="#5C27C0" stroke-width="0.5"/>
<path d="M44.8141 37.115C45.041 36.8784 45.1658 36.562 45.1616 36.2342C45.1575 35.9063 45.0247 35.5932 44.7919 35.3624C44.559 35.1315 44.2448 35.0014 43.917 35C43.5891 34.9986 43.2738 35.1261 43.0391 35.355L33.9316 44.555L29.8191 40.36C29.7048 40.2401 29.5678 40.1441 29.4161 40.0775C29.2644 40.011 29.101 39.9753 28.9354 39.9725C28.7697 39.9697 28.6052 39.9998 28.4513 40.0611C28.2974 40.1224 28.1573 40.2137 28.039 40.3297C27.9207 40.4457 27.8266 40.584 27.7623 40.7366C27.6979 40.8893 27.6645 41.0532 27.6641 41.2188C27.6636 41.3845 27.6961 41.5486 27.7596 41.7016C27.8231 41.8546 27.9164 41.9934 28.0341 42.11L32.8566 47.03C32.9958 47.1721 33.1619 47.285 33.3452 47.3623C33.5285 47.4395 33.7253 47.4796 33.9243 47.48C34.1232 47.4805 34.3202 47.4414 34.5039 47.365C34.6875 47.2886 34.8542 47.1764 34.9941 47.035L44.8141 37.115Z" fill="#AD93DF"/>
</svg>
