<svg width="50" height="50" viewBox="0 0 50 50" fill="none" xmlns="http://www.w3.org/2000/svg">
<path d="M23.1588 8.75218C21.4173 8.75218 19.7471 9.44399 18.5157 10.6754C17.2843 11.9068 16.5925 13.577 16.5925 15.3185C16.5925 17.06 17.2843 18.7302 18.5157 19.9616C19.7471 21.193 21.4173 21.8848 23.1588 21.8848C24.9003 21.8848 26.5705 21.193 27.8019 19.9616C29.0333 18.7302 29.7251 17.06 29.7251 15.3185C29.7251 13.577 29.0333 11.9068 27.8019 10.6754C26.5705 9.44399 24.9003 8.75218 23.1588 8.75218ZM12.8403 15.3185C12.8403 12.5819 13.9274 9.95731 15.8625 8.02222C17.7976 6.08712 20.4222 5 23.1588 5C25.8954 5 28.52 6.08712 30.4551 8.02222C32.3902 9.95731 33.4773 12.5819 33.4773 15.3185C33.4773 18.0551 32.3902 20.6797 30.4551 22.6148C28.52 24.5499 25.8954 25.637 23.1588 25.637C20.4222 25.637 17.7976 24.5499 15.8625 22.6148C13.9274 20.6797 12.8403 18.0551 12.8403 15.3185ZM16.5925 31.2653C14.6022 31.2653 12.6934 32.0559 11.2861 33.4632C10.355 34.3943 9.69392 35.5448 9.35305 36.7932C9.06211 37.8587 9.98355 38.7696 11.0881 38.7696H22.3146V42.5218H9.08812C7.01585 42.5218 5.33594 40.8419 5.33594 38.7696C5.33594 35.7842 6.52189 32.9211 8.6329 30.81C10.7439 28.699 13.6071 27.5131 16.5925 27.5131H22.2207V31.2653H16.5925Z" fill="#5C27C0"/>
<path d="M35.3359 27C33.4794 27 31.6989 27.7375 30.3862 29.0503C29.0734 30.363 28.3359 32.1435 28.3359 34C28.3359 35.8565 29.0734 37.637 30.3862 38.9497C31.6989 40.2625 33.4794 41 35.3359 41C37.1925 41 38.9729 40.2625 40.2857 38.9497C41.5984 37.637 42.3359 35.8565 42.3359 34C42.3359 32.1435 41.5984 30.363 40.2857 29.0503C38.9729 27.7375 37.1925 27 35.3359 27ZM24.3359 34C24.3359 32.5555 24.6205 31.1251 25.1733 29.7905C25.7261 28.4559 26.5363 27.2433 27.5578 26.2218C28.5792 25.2004 29.7918 24.3901 31.1264 23.8373C32.461 23.2845 33.8914 23 35.3359 23C36.7805 23 38.2109 23.2845 39.5455 23.8373C40.88 24.3901 42.0927 25.2004 43.1141 26.2218C44.1356 27.2433 44.9458 28.4559 45.4986 29.7905C46.0514 31.1251 46.3359 32.5555 46.3359 34C46.3359 36.9174 45.177 39.7153 43.1141 41.7782C41.0512 43.8411 38.2533 45 35.3359 45C32.4186 45 29.6207 43.8411 27.5578 41.7782C25.4949 39.7153 24.3359 36.9174 24.3359 34ZM37.3359 29.504V33.172L40.1639 36L37.3359 38.828L33.3359 34.828V29.504H37.3359Z" fill="#AD93DF"/>
</svg>
