<svg width="99" height="31" viewBox="0 0 99 31" fill="none" xmlns="http://www.w3.org/2000/svg">
<g clip-path="url(#clip0_1_93)">
<path d="M12.1928 0H13.0731C16.1295 0.0637419 19.136 1.24297 21.2954 3.33052C20.4981 4.11136 19.6842 4.86032 18.9035 5.64116C17.6909 4.58942 16.2292 3.77671 14.6345 3.48987C12.2758 3.01181 9.73437 3.44206 7.7577 4.73284C5.5983 6.08736 4.13656 8.38206 3.82095 10.8361C3.47213 13.2583 4.18639 15.808 5.83085 17.6884C7.40887 19.521 9.81743 20.6683 12.309 20.748C14.6345 20.8755 17.0597 20.1903 18.754 18.6286C20.0829 17.529 20.6975 15.8558 20.8968 14.2304C18.1394 14.2304 15.382 14.2463 12.6246 14.2304V10.9477H24.2355C24.8335 14.4694 23.9698 18.4374 21.1792 20.9552C19.3188 22.7399 16.7441 23.7917 14.1196 23.9988C11.5782 24.2379 8.95367 23.7757 6.69461 22.5965C3.98706 21.2101 1.82766 18.8676 0.764577 16.1108C-0.232067 13.577 -0.248678 10.7086 0.681524 8.15897C1.52867 5.83239 3.15652 3.77671 5.24948 2.34252C7.25937 0.924258 9.70115 0.143419 12.1928 0Z" fill="#1F1F1F"/>
<path d="M78.8047 0.828125H82.3594V23.584C81.18 23.584 79.9841 23.5999 78.8047 23.5681C78.8213 15.9987 78.8047 8.41342 78.8047 0.828125Z" fill="#1F1F1F"/>
<path d="M32.1392 8.71948C34.3318 8.3211 36.7071 8.76729 38.5177 10.0262C40.1622 11.1417 41.3083 12.8946 41.6571 14.8068C42.1056 17.0219 41.5409 19.4441 40.0459 21.197C38.4346 23.157 35.7935 24.2088 33.2189 24.0494C30.8601 23.9219 28.5679 22.7905 27.1726 20.942C25.5945 18.9023 25.2125 16.0976 26.0763 13.7073C26.94 11.1417 29.3818 9.18161 32.1392 8.71948ZM32.6375 11.7472C31.7405 11.9703 30.91 12.4643 30.312 13.1655C28.7007 15.014 28.8004 18.0258 30.5778 19.7468C31.591 20.7348 33.1192 21.197 34.5311 20.9261C35.8434 20.703 36.9895 19.8584 37.6207 18.7429C38.717 16.8466 38.4014 14.2332 36.7237 12.7512C35.644 11.795 34.066 11.3966 32.6375 11.7472Z" fill="#1F1F1F"/>
<path d="M49.7511 8.72066C52.2594 8.25853 55.0001 8.92782 56.8771 10.617C59.9335 13.2463 60.2657 18.1704 57.6579 21.1981C56.0798 23.1104 53.5218 24.1621 50.9969 24.0506C48.5884 23.9869 46.2131 22.8395 44.7845 20.9432C43.1733 18.8556 42.8245 15.9872 43.738 13.5491C44.6516 11.0632 47.0436 9.16685 49.7511 8.72066ZM50.2495 11.7484C49.3525 11.9715 48.5219 12.4655 47.924 13.1507C46.3293 14.9674 46.3958 17.9314 48.1067 19.6683C49.1199 20.7041 50.698 21.2141 52.1597 20.9272C53.4553 20.6882 54.6181 19.8596 55.2493 18.7441C56.329 16.8318 56.0134 14.2184 54.3191 12.7364C53.2394 11.7803 51.6614 11.3978 50.2495 11.7484Z" fill="#1F1F1F"/>
<path d="M64.6824 9.64541C66.5927 8.49806 69.1341 8.17935 71.1938 9.16735C71.8416 9.43825 72.3732 9.90038 72.8881 10.3625C72.9047 9.93225 72.8881 9.48606 72.9047 9.03986C74.0177 9.0558 75.1306 9.03986 76.2601 9.0558V23.1109C76.2435 25.2303 75.6787 27.4772 74.0841 29.023C72.34 30.7281 69.6656 31.2539 67.2571 30.9033C64.6824 30.5368 62.44 28.7361 61.4433 26.4573C62.44 25.9952 63.4864 25.6287 64.5163 25.1984C65.0977 26.5052 66.277 27.6206 67.7554 27.8756C69.2338 28.1306 70.9447 27.78 71.9081 26.6008C72.938 25.3897 72.938 23.7324 72.8881 22.2504C72.124 22.9675 71.2437 23.6049 70.1806 23.8439C67.8717 24.4654 65.3302 23.7005 63.5529 22.2026C61.7589 20.7046 60.6958 18.394 60.7955 16.0993C60.8453 13.5018 62.3735 10.9999 64.6824 9.64541ZM68.1208 11.6852C67.1076 11.8445 66.1608 12.3863 65.513 13.1353C63.9515 14.9201 63.9515 17.7725 65.5296 19.5254C66.4265 20.5612 67.8717 21.1349 69.267 20.9915C70.5792 20.864 71.7918 20.0672 72.4396 18.9677C73.5359 17.1032 73.3532 14.5695 71.8749 12.9441C70.9613 11.9401 69.4995 11.4461 68.1208 11.6852Z" fill="#1F1F1F"/>
<path d="M86.6279 10.4524C88.6212 8.66767 91.6942 8.06212 94.2522 9.00231C96.6774 9.87877 98.2222 12.0938 99.0029 14.3726C95.3984 15.8068 91.8105 17.225 88.2059 18.6592C88.7042 19.5675 89.4683 20.3962 90.4982 20.7308C91.9433 21.2248 93.6709 21.0495 94.8835 20.1253C95.3652 19.7747 95.7472 19.3126 96.1126 18.8664C97.0262 19.456 97.9398 20.0297 98.8534 20.6193C97.5578 22.4837 95.3818 23.7904 93.0397 23.9976C90.4484 24.3004 87.691 23.3443 86.0133 21.4001C83.2559 18.3405 83.5217 13.2093 86.6279 10.4524ZM88.4053 13.4005C87.8405 14.1813 87.6079 15.1375 87.6246 16.0777C90.0331 15.1215 92.4417 14.1654 94.8502 13.1933C94.4516 12.301 93.4882 11.7592 92.5081 11.6157C90.9301 11.3448 89.2856 12.1575 88.4053 13.4005Z" fill="#1F1F1F"/>
</g>
<defs>
<clipPath id="clip0_1_93">
<rect width="99" height="31" fill="white"/>
</clipPath>
</defs>
</svg>
