<svg width="29" height="29" viewBox="0 0 29 29" fill="none" xmlns="http://www.w3.org/2000/svg">
<path d="M7.85417 1.8125C7.13311 1.8125 6.44159 2.09894 5.93172 2.6088C5.42186 3.11867 5.13542 3.81019 5.13542 4.53125C5.13542 5.25231 5.42186 5.94383 5.93172 6.4537C6.44159 6.96356 7.13311 7.25 7.85417 7.25C8.57523 7.25 9.26675 6.96356 9.77661 6.4537C10.2865 5.94383 10.5729 5.25231 10.5729 4.53125C10.5729 3.81019 10.2865 3.11867 9.77661 2.6088C9.26675 2.09894 8.57523 1.8125 7.85417 1.8125ZM3.32292 4.53125C3.32292 3.32949 3.80032 2.17695 4.65009 1.32717C5.49986 0.477398 6.65241 0 7.85417 0C9.05593 0 10.2085 0.477398 11.0582 1.32717C11.908 2.17695 12.3854 3.32949 12.3854 4.53125C12.3854 5.73301 11.908 6.88555 11.0582 7.73533C10.2085 8.5851 9.05593 9.0625 7.85417 9.0625C6.65241 9.0625 5.49986 8.5851 4.65009 7.73533C3.80032 6.88555 3.32292 5.73301 3.32292 4.53125ZM0 13.2699C0 11.9468 1.07179 10.875 2.39492 10.875H9.16158C8.93243 11.4537 8.79937 12.0659 8.76767 12.6875H2.39492C2.24045 12.6875 2.09231 12.7489 1.98309 12.8581C1.87386 12.9673 1.8125 13.1155 1.8125 13.2699V13.7448C1.8125 13.9526 1.81492 15.2105 2.54596 16.3995C3.17429 17.4193 4.42371 18.525 7.08083 18.7038C6.46639 19.103 5.9877 19.6795 5.70817 20.3568C3.28546 19.9085 1.83304 18.699 1.00292 17.348C-6.11098e-08 15.7204 0 14.0384 0 13.7484V13.2699ZM19.8372 10.875C20.062 11.4405 20.1997 12.0507 20.2311 12.6875H26.6051C26.9265 12.6875 27.1875 12.9485 27.1875 13.2699V13.7448C27.1875 13.9526 27.1851 15.2105 26.4528 16.3995C25.8257 17.4193 24.5775 18.525 21.9192 18.7038C22.5294 19.1001 23.0115 19.6765 23.2918 20.3568C25.7145 19.9085 27.167 18.699 27.9971 17.348C29 15.7192 29 14.0372 29 13.7472V13.2699C29 12.6347 28.7477 12.0256 28.2985 11.5765C27.8494 11.1273 27.2403 10.875 26.6051 10.875H19.8372ZM21.1458 1.8125C20.4248 1.8125 19.7333 2.09894 19.2234 2.6088C18.7135 3.11867 18.4271 3.81019 18.4271 4.53125C18.4271 5.25231 18.7135 5.94383 19.2234 6.4537C19.7333 6.96356 20.4248 7.25 21.1458 7.25C21.8669 7.25 22.5584 6.96356 23.0683 6.4537C23.5781 5.94383 23.8646 5.25231 23.8646 4.53125C23.8646 3.81019 23.5781 3.11867 23.0683 2.6088C22.5584 2.09894 21.8669 1.8125 21.1458 1.8125ZM16.6146 4.53125C16.6146 3.32949 17.092 2.17695 17.9418 1.32717C18.7915 0.477398 19.9441 0 21.1458 0C22.3476 0 23.5001 0.477398 24.3499 1.32717C25.1997 2.17695 25.6771 3.32949 25.6771 4.53125C25.6771 5.73301 25.1997 6.88555 24.3499 7.73533C23.5001 8.5851 22.3476 9.0625 21.1458 9.0625C19.9441 9.0625 18.7915 8.5851 17.9418 7.73533C17.092 6.88555 16.6146 5.73301 16.6146 4.53125ZM6.64583 21.7283C6.64583 20.4051 7.71763 19.3333 9.04075 19.3333H19.9593C21.2824 19.3333 22.3542 20.4051 22.3542 21.7283V22.2055C22.3542 22.4955 22.3542 24.1775 21.3513 25.8064C20.3 27.5174 18.2531 29 14.5 29C10.7469 29 8.7 27.5162 7.64875 25.8076C6.64583 24.1775 6.64583 22.4968 6.64583 22.2055V21.7283ZM9.04075 21.1458C8.88629 21.1458 8.73815 21.2072 8.62892 21.3164C8.5197 21.4256 8.45833 21.5738 8.45833 21.7283V22.2031C8.45833 22.411 8.46075 23.6688 9.19179 24.8578C9.87813 25.9719 11.3052 27.1875 14.5 27.1875C17.6948 27.1875 19.1219 25.9719 19.807 24.8578C20.5393 23.67 20.5417 22.411 20.5417 22.2031V21.7283C20.5417 21.5738 20.4803 21.4256 20.3711 21.3164C20.2619 21.2072 20.1137 21.1458 19.9593 21.1458H9.04075ZM11.7813 12.9896C11.7813 12.6326 11.8516 12.279 11.9882 11.9492C12.1248 11.6193 12.3251 11.3196 12.5776 11.0671C12.83 10.8147 13.1297 10.6144 13.4596 10.4778C13.7894 10.3412 14.143 10.2708 14.5 10.2708C14.857 10.2708 15.2106 10.3412 15.5404 10.4778C15.8703 10.6144 16.17 10.8147 16.4224 11.0671C16.6749 11.3196 16.8752 11.6193 17.0118 11.9492C17.1484 12.279 17.2188 12.6326 17.2188 12.9896C17.2188 13.7106 16.9323 14.4022 16.4224 14.912C15.9126 15.4219 15.2211 15.7083 14.5 15.7083C13.7789 15.7083 13.0874 15.4219 12.5776 14.912C12.0677 14.4022 11.7813 13.7106 11.7813 12.9896ZM14.5 8.45833C13.2982 8.45833 12.1457 8.93573 11.2959 9.78551C10.4462 10.6353 9.96875 11.7878 9.96875 12.9896C9.96875 14.1913 10.4462 15.3439 11.2959 16.1937C12.1457 17.0434 13.2982 17.5208 14.5 17.5208C15.7018 17.5208 16.8543 17.0434 17.7041 16.1937C18.5539 15.3439 19.0313 14.1913 19.0313 12.9896C19.0313 11.7878 18.5539 10.6353 17.7041 9.78551C16.8543 8.93573 15.7018 8.45833 14.5 8.45833Z" fill="#5C5C5C"/>
</svg>
