<svg width="50" height="50" viewBox="0 0 50 50" fill="none" xmlns="http://www.w3.org/2000/svg">
<g clip-path="url(#clip0_1_435)">
<path d="M19.2181 14.2318H17.143L14.0443 26.5651H15.6291L16.3444 23.6745H19.9149L20.6118 26.5651H22.249L19.2181 14.2318ZM16.5526 22.4365L18.1204 15.6964H18.1898L19.7068 22.4381L16.5526 22.4365ZM23.6612 26.5651V14.2318H25.2029V26.5651H23.6612ZM23.9495 28.1068H12.5026V12.6901H27.9193V20.0593C29.744 18.881 31.9511 18.4473 34.0859 18.8475V15.7734H31.0026V12.6901C31.0002 11.8731 30.6745 11.0903 30.0968 10.5126C29.5191 9.93484 28.7363 9.60921 27.9193 9.60677H24.8359V6.52344H21.7526V9.60677H18.6693V6.52344H15.5859V9.60677H12.5026C11.6856 9.60921 10.9028 9.93484 10.3251 10.5126C9.74734 11.0903 9.42171 11.8731 9.41927 12.6901V15.7734H6.33594V18.8568H9.41927V21.9401H6.33594V25.0234H9.41927V28.1068C9.42171 28.9238 9.74734 29.7066 10.3251 30.2843C10.9028 30.862 11.6856 31.1877 12.5026 31.1901H15.5859V34.2734H18.6693V31.1901H21.7526V34.2734H24.8359V31.2024C24.3471 30.236 24.0463 29.1855 23.9495 28.1068Z" fill="#AD93DF"/>
<path d="M27.1458 25.7943C27.1458 24.7271 27.4623 23.6838 28.0552 22.7965C28.6481 21.9092 29.4908 21.2176 30.4768 20.8092C31.4627 20.4008 32.5477 20.2939 33.5943 20.5021C34.641 20.7103 35.6025 21.2242 36.3571 21.9788C37.1117 22.7335 37.6256 23.6949 37.8338 24.7416C38.042 25.7883 37.9352 26.8732 37.5268 27.8592C37.1184 28.8451 36.4268 29.6878 35.5394 30.2807C34.6521 30.8736 33.6089 31.1901 32.5417 31.1901C31.833 31.1903 31.1313 31.0509 30.4765 30.7798C29.8218 30.5087 29.2269 30.1112 28.7258 29.6102C28.2247 29.1091 27.8272 28.5142 27.5562 27.8594C27.2851 27.2047 27.1456 26.5029 27.1458 25.7943ZM32.5417 34.2734C28.9403 34.2734 21.75 36.0818 21.75 39.6693V41.9818H43.3333V39.6693C43.3333 36.0803 36.143 34.2734 32.5417 34.2734Z" fill="#5C27C0"/>
</g>
<defs>
<clipPath id="clip0_1_435">
<rect width="37" height="37" fill="white" transform="translate(6.33594 6.52344)"/>
</clipPath>
</defs>
</svg>
