<svg width="67" height="60" viewBox="0 0 67 60" fill="none" xmlns="http://www.w3.org/2000/svg">
<path d="M33.5 12.3333H33.5012C35.6106 12.3359 37.4414 13.0944 38.9389 14.5845C40.4363 16.0745 41.1997 17.8973 41.2 19.9988C41.2 19.9992 41.2 19.9996 41.2 20H40.2C40.2022 21.8356 39.5467 23.4056 38.2335 24.71C36.9203 26.0144 35.3425 26.6667 33.5 26.6667V12.3333ZM33.5 12.3333C31.3915 12.3333 29.5613 13.0925 28.0639 14.5851C26.5672 16.0768 25.8026 17.8991 25.8 19.9988V20C25.8 22.1025 26.5649 23.9267 28.0645 25.4189C29.5637 26.9106 31.3935 27.6689 33.5 27.6667V12.3333ZM19.1 40V41H20.1H46.9H47.9V40V38.1667C47.9 35.2583 46.4349 32.9726 43.7288 31.3521C41.0666 29.7579 37.6318 29.0023 33.5005 29H33.5C29.3684 29 25.9332 29.7556 23.2707 31.3524C20.5653 32.9749 19.1 35.2603 19.1 38.1667V40ZM45.9 53.3333V59H21.1V53.3333V52.3333H20.1H6.7C5.12296 52.3333 3.7995 51.7866 2.67514 50.6678C1.55103 49.5493 1.00204 48.2334 1 46.666V6.66667C1 5.10258 1.54828 3.78822 2.67454 2.66947C3.80178 1.54974 5.12598 1.00203 6.70063 1H60.3C61.8765 1 63.2013 1.54752 64.3282 2.66887C65.455 3.79003 66.0019 5.10432 66 6.66545V6.66667V46.6667C66 48.2314 65.4524 49.5473 64.3276 50.6684C63.2037 51.7887 61.8799 52.3352 60.3012 52.3333H60.3H46.9H45.9V53.3333Z" stroke="#EFE5FF" stroke-width="2"/>
</svg>
