<svg width="50" height="50" viewBox="0 0 50 50" fill="none" xmlns="http://www.w3.org/2000/svg">
<path d="M43.0783 5H7.24718C5.29438 5.07166 3.73572 6.63032 3.66406 8.58312V33.6649C3.73572 35.6177 5.29438 37.1764 7.24718 37.248H43.0783C45.0311 37.1764 46.5898 35.6177 46.6615 33.6649V8.58312C46.6285 7.64331 46.2404 6.75097 45.5754 6.08602C44.9105 5.42107 44.0181 5.03297 43.0783 5ZM43.0783 33.6649H7.24718V8.58312H43.0783V33.6649Z" fill="#5C27C0"/>
<path d="M29.5718 27.5277V29.7671H11.6562V27.5277C11.6562 24.5537 17.6401 23.0488 20.614 23.0488C23.588 23.0488 29.5718 24.5537 29.5718 27.5277Z" fill="#AD93DF"/>
<path d="M17.447 13.1634C18.2869 12.3234 19.4262 11.8516 20.614 11.8516C21.2022 11.8516 21.7846 11.9674 22.328 12.1925C22.8714 12.4176 23.3652 12.7475 23.7811 13.1634C24.197 13.5793 24.5269 14.0731 24.752 14.6165C24.9771 15.1599 25.0929 15.7423 25.0929 16.3305C25.0929 16.9186 24.9771 17.5011 24.752 18.0445C24.5269 18.5879 24.197 19.0816 23.7811 19.4975C23.3652 19.9134 22.8714 20.2433 22.328 20.4684C21.7846 20.6935 21.2022 20.8094 20.614 20.8094C19.4262 20.8094 18.2869 20.3375 17.447 19.4975C17.0311 19.0816 16.7012 18.5879 16.4761 18.0445C16.251 17.5011 16.1351 16.9186 16.1351 16.3305C16.1351 15.1426 16.607 14.0034 17.447 13.1634Z" fill="#AD93DF"/>
<path d="M29.5718 13.6431V11.8516H40.3212V13.6431H29.5718Z" fill="#AD93DF"/>
<path d="M29.5718 17.2262V15.4347H40.3212V17.2262H29.5718Z" fill="#AD93DF"/>
<path d="M29.5718 20.8094V19.0178H36.7381V20.8094H29.5718Z" fill="#AD93DF"/>
</svg>
