<svg width="131" height="26" viewBox="0 0 131 26" fill="none" xmlns="http://www.w3.org/2000/svg">
<g clip-path="url(#clip0_1_87)">
<path d="M130.998 11.7636V9.6229H128.137V6.29495L128.041 6.3225L125.354 7.08646L125.301 7.10141V9.62301H121.059V8.21827C121.059 7.56417 121.217 7.06362 121.527 6.7298C121.835 6.39998 122.276 6.23231 122.838 6.23231C123.242 6.23231 123.66 6.32074 124.081 6.49512L124.187 6.53893V4.2845L124.137 4.26754C123.744 4.13637 123.21 4.07031 122.548 4.07031C121.713 4.07031 120.955 4.23905 120.294 4.57346C119.632 4.90833 119.112 5.3864 118.747 5.99422C118.384 6.60133 118.2 7.30253 118.2 8.0785V9.6229H116.208V11.7636H118.2V20.7819H121.059V11.7636H125.301V17.4946C125.301 19.8548 126.499 21.0509 128.862 21.0509C129.25 21.0509 129.659 21.0087 130.076 20.9259C130.501 20.8409 130.79 20.756 130.961 20.6653L130.998 20.6446V18.4841L130.882 18.5556C130.727 18.6517 130.533 18.7302 130.307 18.7886C130.079 18.8481 129.889 18.8779 129.742 18.8779C129.188 18.8779 128.779 18.7393 128.525 18.4658C128.268 18.1897 128.137 17.7071 128.137 17.0319V11.7636H130.998ZM109.821 18.8782C108.783 18.8782 107.965 18.5584 107.388 17.9285C106.808 17.2953 106.514 16.3927 106.514 15.2458C106.514 14.0625 106.808 13.1364 107.388 12.4921C107.965 11.852 108.776 11.5271 109.798 11.5271C110.79 11.5271 111.579 11.8374 112.144 12.4498C112.713 13.0654 113.001 13.9841 113.001 15.1811C113.001 16.3929 112.73 17.3237 112.195 17.9464C111.664 18.5643 110.865 18.8782 109.821 18.8782ZM109.948 9.35408C107.968 9.35408 106.395 9.89325 105.274 10.9566C104.153 12.0202 103.585 13.4919 103.585 15.3314C103.585 17.0785 104.139 18.4839 105.233 19.5077C106.328 20.5319 107.817 21.0507 109.659 21.0507C111.578 21.0507 113.12 20.504 114.241 19.4259C115.362 18.3489 115.93 16.8911 115.93 15.0946C115.93 13.3201 115.397 11.9043 114.345 10.8873C113.293 9.86982 111.814 9.35408 109.948 9.35408ZM98.9738 9.35408C97.6268 9.35408 96.5125 9.67424 95.6613 10.3055C94.8049 10.9405 94.3705 11.7734 94.3705 12.7812C94.3705 13.305 94.4642 13.7704 94.6488 14.1651C94.8344 14.5611 95.1217 14.9097 95.5034 15.2023C95.8822 15.4926 96.4669 15.7966 97.2416 16.1059C97.893 16.355 98.3787 16.5656 98.6873 16.7317C98.9889 16.8944 99.2029 17.0579 99.3238 17.2173C99.4413 17.3732 99.5009 17.5865 99.5009 17.8498C99.5009 18.5995 98.8967 18.9643 97.6534 18.9643C97.1922 18.9643 96.6662 18.8748 96.09 18.6984C95.5179 18.5247 94.9779 18.2703 94.489 17.9441L94.3702 17.865V20.4233L94.4138 20.4422C94.8184 20.6157 95.3286 20.7621 95.9299 20.8773C96.5301 20.9925 97.0754 21.0512 97.5491 21.0512C99.0108 21.0512 100.188 20.7295 101.047 20.0945C101.911 19.4551 102.349 18.6026 102.349 17.5599C102.349 16.8077 102.114 16.1627 101.649 15.6425C101.187 15.1265 100.386 14.6528 99.2682 14.2341C98.3778 13.902 97.8075 13.6264 97.5721 13.4148C97.3453 13.2104 97.2301 12.9213 97.2301 12.5552C97.2301 12.2307 97.3723 11.9707 97.6641 11.7602C97.9583 11.5486 98.3677 11.4409 98.8812 11.4409C99.3577 11.4409 99.8452 11.5109 100.33 11.648C100.814 11.785 101.24 11.9686 101.595 12.1931L101.712 12.2673V9.8405L101.667 9.8226C101.34 9.69202 100.907 9.58027 100.382 9.48961C99.86 9.39953 99.3861 9.35408 98.9738 9.35408ZM86.9152 18.8782C85.8775 18.8782 85.0588 18.5584 84.4822 17.9285C83.9018 17.2953 83.6083 16.3929 83.6083 15.2458C83.6083 14.0625 83.9022 13.1364 84.4829 12.4921C85.0595 11.852 85.8699 11.5271 86.8923 11.5271C87.8835 11.5271 88.6728 11.8374 89.2384 12.4498C89.8068 13.0654 90.0951 13.9841 90.0951 15.1811C90.0951 16.3929 89.8238 17.3237 89.289 17.9464C88.7579 18.5643 87.9597 18.8782 86.9152 18.8782ZM87.0427 9.35408C85.0619 9.35408 83.4888 9.89325 82.368 10.9566C81.2472 12.0202 80.6786 13.4919 80.6786 15.3314C80.6786 17.0793 81.2337 18.4839 82.3278 19.5077C83.4219 20.5319 84.9108 21.0507 86.753 21.0507C88.6723 21.0507 90.2143 20.504 91.3353 19.4259C92.4559 18.3489 93.024 16.8911 93.024 15.0946C93.024 13.3201 92.491 11.9043 91.4394 10.8873C90.3872 9.86982 88.9078 9.35408 87.0427 9.35408ZM76.3376 11.5554V9.6229H73.5127V20.7816H76.3376V15.0735C76.3376 14.1029 76.5744 13.3055 77.0418 12.7032C77.5032 12.1081 78.118 11.8066 78.8688 11.8066C79.1232 11.8066 79.4089 11.8455 79.7182 11.9227C80.0243 11.9993 80.2461 12.0826 80.3769 12.1702L80.4956 12.2501V9.60382L80.4499 9.58557C80.1868 9.48172 79.8146 9.42932 79.3437 9.42932C78.6338 9.42932 77.9985 9.64127 77.4544 10.0586C76.9768 10.4254 76.6316 10.9283 76.3676 11.5554H76.3376ZM68.4537 9.35408C67.1577 9.35408 66.0018 9.6123 65.0185 10.1213C64.0332 10.6315 63.2712 11.3599 62.7528 12.2862C62.2367 13.2101 61.9746 14.2894 61.9746 15.4931C61.9746 16.5474 62.2287 17.5149 62.7309 18.3677C63.2334 19.2218 63.9445 19.89 64.8448 20.3535C65.7437 20.8164 66.7828 21.0511 67.9331 21.0511C69.2757 21.0511 70.4219 20.8017 71.3409 20.3098L71.378 20.29V17.8852L71.2593 17.9658C70.843 18.2476 70.3778 18.4725 69.8772 18.6345C69.3779 18.7964 68.9227 18.8782 68.5236 18.8782C67.4151 18.8782 66.5252 18.5559 65.8793 17.9206C65.232 17.2844 64.9038 16.391 64.9038 15.2669C64.9038 14.1356 65.2461 13.2193 65.9206 12.5432C66.5932 11.8691 67.4847 11.5271 68.5702 11.5271C69.4987 11.5271 70.4035 11.8193 71.2595 12.3962L71.378 12.4762V9.94235L71.3397 9.92233C71.0176 9.75478 70.5782 9.61642 70.0328 9.51151C69.4897 9.40683 68.9585 9.35408 68.4537 9.35408ZM60.029 9.62301H57.2041V20.7816H60.029V9.62301ZM58.6454 4.86936C58.1805 4.86936 57.775 5.01643 57.4418 5.30786C57.1073 5.60011 56.9376 5.96808 56.9376 6.40234C56.9376 6.82977 57.1053 7.19102 57.4366 7.4755C57.7659 7.75916 58.1726 7.90293 58.6456 7.90293C59.1184 7.90293 59.5267 7.75916 59.8598 7.47598C60.1952 7.19102 60.3652 6.82988 60.3652 6.40234C60.3652 5.98327 60.1997 5.61907 59.8737 5.31963C59.5478 5.02078 59.1345 4.86936 58.6454 4.86936ZM51.5971 8.79971V20.7816H54.48V5.21095H50.4899L45.4182 16.7764L40.4964 5.21095H36.3438V20.7815H39.053V8.79853H39.146L44.3433 20.7816H46.3879L51.5041 8.79971H51.5971Z" fill="#1F1F1F"/>
<path d="M13.2892 12.3559H0V0.0078125H13.2892V12.3559Z" fill="#1F1F1F"/>
<path d="M27.9609 12.3559H14.6719V0.0078125H27.9609V12.3559Z" fill="#1F1F1F"/>
<path d="M13.2889 25.9965H0V13.6484H13.2889V25.9965Z" fill="#1F1F1F"/>
<path d="M27.9609 25.9965H14.6719V13.6484H27.9609V25.9965Z" fill="#1F1F1F"/>
</g>
<defs>
<clipPath id="clip0_1_87">
<rect width="131" height="26" fill="white"/>
</clipPath>
</defs>
</svg>
