<svg width="63" height="63" viewBox="0 0 63 63" fill="none" xmlns="http://www.w3.org/2000/svg">
<path d="M12.5957 1C12.0434 1 11.5957 1.44772 11.5957 2V6.70175C11.5957 7.25404 11.148 7.70175 10.5957 7.70175H2C1.44772 7.70175 1 8.14947 1 8.70175V14.2632C1 25.2456 3.90678 31.3684 10.8924 35.1754C13.4895 36.7429 15.8865 38.6962 18.0187 40.9825C19.7325 43.0346 21.8227 44.6448 24.1449 45.7018L26.1125 46.3814C26.5155 46.5206 26.786 46.9001 26.786 47.3266V53.5614C26.786 54.1137 26.3382 54.5614 25.786 54.5614H22.754C17.8781 54.5614 16.2372 55.807 16.2372 59.5088V61C16.2372 61.5523 16.6849 62 17.2372 62H45.7115C46.2638 62 46.7115 61.5523 46.7115 61V59.7719C46.7115 56.1404 44.7111 54.5088 40.0853 54.5088H37.1627C36.6104 54.5088 36.1627 54.0611 36.1627 53.5088V47.3351C36.1627 46.9045 36.4383 46.5223 36.8469 46.3863L38.8507 45.7193C41.1762 44.6612 43.2672 43.0444 44.9768 40.9825C47.2013 38.6024 49.6912 36.5561 52.3844 34.8947C54.4756 33.765 56.3431 32.1749 57.8761 30.219C59.409 28.263 60.5761 25.9811 61.3079 23.5088C61.8054 20.4477 62.0357 17.3394 61.9955 14.2281V8.7193C61.9955 8.16701 61.5478 7.7193 60.9955 7.7193H52.353C51.8007 7.7193 51.353 7.27158 51.353 6.7193V2C51.353 1.44772 50.9052 1 50.353 1H12.5957ZM30.5581 14.3178C30.9036 13.5099 32.0484 13.5084 32.396 14.3155L34.4177 19.0096C34.5757 19.3764 34.9368 19.614 35.3361 19.614H40.0424C40.9249 19.614 41.3748 20.6738 40.7618 21.3087L36.7214 25.4928C36.4894 25.733 36.3927 26.0731 36.4634 26.3994L37.594 31.6134C37.7798 32.4701 36.8516 33.1342 36.1007 32.6818L31.9938 30.2077C31.6745 30.0153 31.2748 30.0165 30.9567 30.2107L26.8569 32.7132C26.1062 33.1714 25.1722 32.5072 25.3586 31.6478L26.485 26.4528C26.5559 26.1261 26.4587 25.7855 26.2262 25.5453L22.1764 21.3622C21.5621 20.7277 22.0117 19.6667 22.8948 19.6667H27.6107C28.011 19.6667 28.3727 19.4279 28.5301 19.0599L30.5581 14.3178ZM6.66854 15.4989C6.61223 14.9116 7.07398 14.4035 7.66397 14.4035H10.5019C11.0542 14.4035 11.5019 14.8512 11.5019 15.4035V27.6989C11.5019 28.0299 11.2869 28.3092 11.0136 28.1223C10.2932 27.6298 9.11639 25.9402 8.20444 24.0702C7.53901 22.2301 7.11269 20.2921 6.93859 18.3158L6.66854 15.4989ZM51.4434 15.4002C51.4452 14.8492 51.8924 14.4035 52.4434 14.4035H55.6984C56.2969 14.4035 56.7614 14.9257 56.6916 15.5201L56.3695 18.2632C56.263 21.4761 55.1122 24.5341 53.1345 26.8596C53.0196 27.0354 52.8971 27.2042 52.7675 27.3654C52.2682 27.9865 51.4033 27.5515 51.406 26.7546L51.4434 15.4002Z" stroke="#EFE5FF" stroke-width="2" stroke-linecap="round" stroke-linejoin="round"/>
</svg>
